<?xml version="1.0" encoding="utf-8"?>
<!-- Generator: Adobe Illustrator 16.0.0, SVG Export Plug-In . SVG Version: 6.00 Build 0)  -->
<!DOCTYPE svg PUBLIC "-//W3C//DTD SVG 1.1//EN" "http://www.w3.org/Graphics/SVG/1.1/DTD/svg11.dtd">
<svg version="1.1" id="Laag_1" xmlns="http://www.w3.org/2000/svg" xmlns:xlink="http://www.w3.org/1999/xlink" x="0px" y="0px"
	 width="388.48px" height="356.982px" viewBox="0 0 388.48 356.982" enable-background="new 0 0 388.48 356.982"
	 xml:space="preserve">
<g>
	<path d="M309.205,297.477H108.124c-10.172,0-18.447-8.275-18.447-18.447v-69.895L36.6,178.491l53.077-30.644V77.952
		c0-10.172,8.275-18.447,18.447-18.447h201.081c10.172,0,18.447,8.275,18.447,18.447V279.03
		C327.652,289.202,319.377,297.477,309.205,297.477z M58.912,178.491l41.921,24.203v76.336c0,4.021,3.271,7.291,7.291,7.291h201.081
		c4.02,0,7.291-3.27,7.291-7.291V77.952c0-4.021-3.271-7.291-7.291-7.291H108.124c-4.021,0-7.291,3.271-7.291,7.291v76.336
		L58.912,178.491z"/>
</g>
</svg>
