<?xml version="1.0" encoding="utf-8"?>
<!-- Generator: Adobe Illustrator 16.0.0, SVG Export Plug-In . SVG Version: 6.00 Build 0)  -->
<!DOCTYPE svg PUBLIC "-//W3C//DTD SVG 1.1//EN" "http://www.w3.org/Graphics/SVG/1.1/DTD/svg11.dtd">
<svg version="1.1" id="Laag_1" xmlns="http://www.w3.org/2000/svg" xmlns:xlink="http://www.w3.org/1999/xlink" x="0px" y="0px"
	 width="388.48px" height="356.982px" viewBox="0 0 388.48 356.982" enable-background="new 0 0 388.48 356.982"
	 xml:space="preserve">
<path d="M351.885,300.565L230.424,179.103c-5.354-5.354-12.983-7.038-19.773-5.062C224.57,157.916,233,136.924,233,114
	c0-50.729-41.271-92-92-92s-92,41.271-92,92c0,52.266,40.443,92,92,92c21.229,0,40.8-7.231,56.385-19.355
	c-2.459,7.033-0.901,15.158,4.72,20.779l121.461,121.461c7.82,7.819,20.5,7.819,28.32-0.001S359.705,308.385,351.885,300.565z
	 M103.606,136.724H82.493l10.644-29.294L103.606,136.724z M78.96,162.82h34.226l10.224,28.181
	C105.534,186.919,89.956,176.763,78.96,162.82z M154.779,191.772l-48.313-123.64H80.394L62.032,115.29
	C62.026,114.859,62,114.432,62,114c0-43.561,35.439-79,79-79s79,35.439,79,79C220,152.859,191.79,185.231,154.779,191.772z"/>
</svg>
