<?xml version="1.0" encoding="utf-8"?>
<!-- Generator: Adobe Illustrator 16.0.0, SVG Export Plug-In . SVG Version: 6.00 Build 0)  -->
<!DOCTYPE svg PUBLIC "-//W3C//DTD SVG 1.1//EN" "http://www.w3.org/Graphics/SVG/1.1/DTD/svg11.dtd">
<svg version="1.1" id="Laag_1" xmlns="http://www.w3.org/2000/svg" xmlns:xlink="http://www.w3.org/1999/xlink" x="0px" y="0px"
	 width="388.48px" height="356.982px" viewBox="0 0 388.48 356.982" enable-background="new 0 0 388.48 356.982"
	 xml:space="preserve">
<g>
	<path d="M314.424,13.032H75.576c-24.602,0-44.544,19.943-44.544,44.544v238.848c0,24.601,19.942,44.544,44.544,44.544h238.848
		c24.602,0,44.544-19.943,44.544-44.544V57.576C358.968,32.975,339.025,13.032,314.424,13.032z M316.249,288.279
		c0,5.497-4.473,9.97-9.97,9.97H83.72c-5.498,0-9.97-4.473-9.97-9.97V65.72c0-5.498,4.472-9.97,9.97-9.97h222.559
		c5.497,0,9.97,4.472,9.97,9.97V288.279z"/>
	<path d="M306.279,59.751H83.72c-3.292,0-5.97,2.678-5.97,5.97v222.559c0,3.292,2.678,5.97,5.97,5.97h222.559
		c3.292,0,5.97-2.678,5.97-5.97V65.72C312.249,62.429,309.571,59.751,306.279,59.751z M269.531,206.812l-37.266-37.266L224.812,177
		L195,206.812l-7.453,7.453l37.266,37.265H120.469V147.187l37.266,37.266l7.453-7.453L195,147.187l7.453-7.453l-37.266-37.265
		h104.344V206.812z"/>
</g>
</svg>
