<?xml version="1.0" encoding="utf-8"?>
<!-- Generator: Adobe Illustrator 16.0.0, SVG Export Plug-In . SVG Version: 6.00 Build 0)  -->
<!DOCTYPE svg PUBLIC "-//W3C//DTD SVG 1.1//EN" "http://www.w3.org/Graphics/SVG/1.1/DTD/svg11.dtd">
<svg version="1.1" id="Laag_1" xmlns="http://www.w3.org/2000/svg" xmlns:xlink="http://www.w3.org/1999/xlink" x="0px" y="0px"
	 width="388.48px" height="356.982px" viewBox="0 0 388.48 356.982" enable-background="new 0 0 388.48 356.982"
	 xml:space="preserve">
<rect x="52.243" y="43.743" width="285.396" height="271.438"/>
<polygon fill="#FFFFFF" points="308.649,255.357 278.988,282.67 81.225,282.67 81.225,95.012 308.649,95.012 "/>
<g>
	<path d="M118.693,229.932h23.5v-69.015l-21.861,5.409V147.38l22.004-5.263h20.296v87.815h23.503v18.513h-67.442V229.932z"/>
	<path d="M224.028,229.932h44.799v18.513h-67.513v-17.947l11.393-12.111c13.529-14.384,21.749-23.245,24.643-26.564
		c3.563-4.082,6.122-7.709,7.688-10.86c1.579-3.159,2.362-6.276,2.362-9.373c0-4.746-1.44-8.415-4.306-11.007
		c-2.879-2.579-6.947-3.879-12.217-3.879c-3.76,0-7.967,0.748-12.649,2.243c-4.669,1.496-9.547,3.669-14.635,6.521v-19.589
		c5.088-1.845,10.064-3.264,14.929-4.235c4.864-0.972,9.532-1.461,13.991-1.461c11.252,0,20.101,2.628,26.53,7.869
		c6.443,5.249,9.658,12.405,9.658,21.47c0,4.18-0.699,8.1-2.097,11.756c-1.397,3.654-3.815,7.715-7.227,12.181
		c-2.517,3.236-9.421,10.49-20.729,21.792C232.499,221.378,227.635,226.276,224.028,229.932z"/>
</g>
<rect x="148.05" y="42.869" fill="#FFFFFF" width="26.771" height="31.037"/>
<rect x="214.831" y="42.869" fill="#FFFFFF" width="26.768" height="31.037"/>
<rect x="281.602" y="42.869" fill="#FFFFFF" width="26.781" height="31.037"/>
<rect x="81.271" y="42.869" fill="#FFFFFF" width="26.771" height="31.037"/>
</svg>
