<?xml version="1.0" encoding="utf-8"?>
<!-- Generator: Adobe Illustrator 16.0.0, SVG Export Plug-In . SVG Version: 6.00 Build 0)  -->
<!DOCTYPE svg PUBLIC "-//W3C//DTD SVG 1.1//EN" "http://www.w3.org/Graphics/SVG/1.1/DTD/svg11.dtd">
<svg version="1.1" id="Laag_1" xmlns="http://www.w3.org/2000/svg" xmlns:xlink="http://www.w3.org/1999/xlink" x="0px" y="0px"
	 width="388.48px" height="356.982px" viewBox="0 0 388.48 356.982" enable-background="new 0 0 388.48 356.982"
	 xml:space="preserve">
<g>
	<polygon points="348.569,213.936 324.408,213.936 324.408,189.777 311.229,189.777 311.229,213.936 287.068,213.936 
		287.068,227.117 311.229,227.117 311.229,251.276 324.408,251.276 324.408,227.117 348.569,227.117 	"/>
	<path d="M217.879,179.891c-20.293,0-37.159,14.955-40.157,34.425H81.319v-87.613c19.47-2.997,34.426-19.863,34.426-40.16
		c0-22.407-18.227-40.634-40.634-40.634c-22.405,0-40.634,18.227-40.634,40.634c0,20.296,14.957,37.162,34.426,40.16v187.172h12.417
		v-87.138h96.402c2.999,19.468,19.864,34.422,40.157,34.422c22.407,0,40.638-18.228,40.638-40.633
		C258.516,198.119,240.286,179.891,217.879,179.891z M75.111,113.997c-15.139,0-27.456-12.314-27.456-27.454
		s12.317-27.457,27.456-27.457c15.14,0,27.456,12.317,27.456,27.457S90.251,113.997,75.111,113.997z"/>
	<rect x="186.033" y="79.953" width="61.499" height="13.179"/>
</g>
<g>
	<path d="M216.782,186.48"/>
</g>
</svg>
