<?xml version="1.0" encoding="utf-8"?>
<!-- Generator: Adobe Illustrator 16.0.0, SVG Export Plug-In . SVG Version: 6.00 Build 0)  -->
<!DOCTYPE svg PUBLIC "-//W3C//DTD SVG 1.1//EN" "http://www.w3.org/Graphics/SVG/1.1/DTD/svg11.dtd">
<svg version="1.1" id="Laag_1" xmlns="http://www.w3.org/2000/svg" xmlns:xlink="http://www.w3.org/1999/xlink" x="0px" y="0px"
	 width="388.48px" height="356.982px" viewBox="0 0 388.48 356.982" enable-background="new 0 0 388.48 356.982"
	 xml:space="preserve">
<g>
	<g>
		<polygon fill="#1D1D1B" points="211.652,233.664 101.534,233.664 101.534,55.991 287.533,55.991 287.533,72.648 118.19,72.648 
			118.19,217.008 211.652,217.008 		"/>
	</g>
	<g>
		<polygon fill="#1D1D1B" points="179.478,253.574 207.734,225.336 179.478,197.081 203.447,197.081 231.692,225.336 
			203.447,253.574 		"/>
	</g>
</g>
<g>
	<g>
		<polygon fill="#1D1D1B" points="288.459,303.992 102.459,303.992 102.459,287.336 271.802,287.336 271.802,142.976 
			178.34,142.976 178.34,126.32 288.459,126.32 		"/>
	</g>
	<g>
		<polygon fill="#1D1D1B" points="210.513,106.392 182.259,134.647 210.513,162.894 186.546,162.894 158.299,134.647 
			186.546,106.392 		"/>
	</g>
</g>
</svg>
