<?xml version="1.0" encoding="utf-8"?>
<!-- Generator: Adobe Illustrator 16.0.0, SVG Export Plug-In . SVG Version: 6.00 Build 0)  -->
<!DOCTYPE svg PUBLIC "-//W3C//DTD SVG 1.1//EN" "http://www.w3.org/Graphics/SVG/1.1/DTD/svg11.dtd">
<svg version="1.1" id="Laag_1" xmlns="http://www.w3.org/2000/svg" xmlns:xlink="http://www.w3.org/1999/xlink" x="0px" y="0px"
	 width="388.48px" height="356.982px" viewBox="0 0 388.48 356.982" enable-background="new 0 0 388.48 356.982"
	 xml:space="preserve">
<path fill="#333333" d="M325.841,240.635h-50.239V107.234l43.94-43.35c4.133-4.079,4.181-10.733,0.103-14.869
	c-4.079-4.133-10.733-4.176-14.866-0.1l-40.51,39.964H126.617V49.237c0-5.806-4.707-10.512-10.512-10.512
	s-10.513,4.707-10.513,10.512V88.88H63.175c-5.806,0-10.513,4.707-10.513,10.512c0,5.806,4.707,10.513,10.513,10.513h42.418v141.243
	c0,5.809,4.707,10.513,10.513,10.513h138.471v47.464c0,5.809,4.704,10.513,10.513,10.513s10.513-4.704,10.513-10.513v-47.464h50.239
	c5.808,0,10.512-4.704,10.512-10.513S331.648,240.635,325.841,240.635z M242.957,109.905L126.617,224.678V109.905H242.957z
	 M140.383,240.635l114.193-112.658v112.658H140.383z"/>
</svg>
