<?xml version="1.0" encoding="utf-8"?>
<!-- Generator: Adobe Illustrator 16.0.0, SVG Export Plug-In . SVG Version: 6.00 Build 0)  -->
<!DOCTYPE svg PUBLIC "-//W3C//DTD SVG 1.1//EN" "http://www.w3.org/Graphics/SVG/1.1/DTD/svg11.dtd">
<svg version="1.1" id="Laag_1" xmlns="http://www.w3.org/2000/svg" xmlns:xlink="http://www.w3.org/1999/xlink" x="0px" y="0px"
	 width="388.48px" height="356.982px" viewBox="0 0 388.48 356.982" enable-background="new 0 0 388.48 356.982"
	 xml:space="preserve">
<g>
	
		<rect x="80.779" y="245.656" transform="matrix(-0.7072 -0.7071 0.7071 -0.7072 -58.6271 552.8426)" width="8.784" height="85.812"/>
	<path d="M246.324,108.482c-4.503-4.504-10.49-6.986-16.86-6.986c-6.367,0-12.355,2.48-16.86,6.985l-63.384,63.383
		c-3.402,3.403-14.113,16.619-23.151,29.582c-15.764,22.609-18.993,32.981-12.341,39.631l22.184,22.183
		c1.473,1.473,4.089,3.228,8.197,3.228c2.89,0,9.659,0,34.412-17.672c11.443-8.169,23.205-17.651,26.601-21.05l63.387-63.384
		c9.294-9.296,9.294-24.421,0-33.717L246.324,108.482z M223.084,184.959l-30.386,30.385c-6.505,6.509-36.486,29.011-46.846,33.011
		l-17.22-17.22c4-10.354,26.501-40.338,33.011-46.847l30.385-30.385c1.185-1.186,2.76-1.839,4.437-1.839s3.25,0.652,4.437,1.839
		l22.184,22.184C225.53,178.534,225.53,182.513,223.084,184.959z"/>
	
		<rect x="267.127" y="84.038" transform="matrix(-0.7071 -0.7071 0.7071 -0.7071 397.9846 365.3639)" width="15.06" height="32.448"/>
	<polygon points="282.605,40.31 280.643,67.924 309.142,96.423 336.754,94.459 	"/>
</g>
</svg>
