<?xml version="1.0" encoding="utf-8"?>
<!-- Generator: Adobe Illustrator 15.1.0, SVG Export Plug-In . SVG Version: 6.00 Build 0)  -->
<!DOCTYPE svg PUBLIC "-//W3C//DTD SVG 1.1//EN" "http://www.w3.org/Graphics/SVG/1.1/DTD/svg11.dtd">
<svg version="1.1" id="Layer_1" xmlns="http://www.w3.org/2000/svg" xmlns:xlink="http://www.w3.org/1999/xlink" x="0px" y="0px"
	 width="128px" height="128px" viewBox="0 0 128 128" enable-background="new 0 0 128 128" xml:space="preserve">
<g id="g3442" transform="matrix(2.7789824,0,0,2.7789824,1908.3063,-570.16054)">
	<path id="path3446" fill="#FFFFFF" d="M-652.851,216.944h-21.284c-0.315,0-0.571,0.255-0.571,0.57v21.282
		c0,0.315,0.256,0.571,0.571,0.571h21.284c0.315,0,0.571-0.255,0.571-0.571v-21.282C-652.278,217.2-652.537,216.944-652.851,216.944
		z M-656.365,231.007l-3.563-3.563l-0.713,0.71l-2.852,2.853l-0.713,0.712l3.565,3.563h-9.977v-9.98l3.563,3.565l0.713-0.714
		l2.852-2.851l0.713-0.711l-3.563-3.565h9.977v9.98H-656.365z"/>
</g>
</svg>
