<?xml version="1.0" encoding="utf-8"?>
<!-- Generator: Adobe Illustrator 20.1.0, SVG Export Plug-In . SVG Version: 6.00 Build 0)  -->
<svg version="1.1" id="Capa_1" xmlns="http://www.w3.org/2000/svg" xmlns:xlink="http://www.w3.org/1999/xlink" x="0px" y="0px"
	 viewBox="0 0 512 512" style="enable-background:new 0 0 512 512;" xml:space="preserve">
<style type="text/css">
	.st0{fill:#FFFFFF;}
</style>
<path class="st0" d="M231.3,199.2l8.5,8.5l-19.9,19.9c-2.1,2.1-2.1,5.4,0,7.5l4,4l-19.1,35.3c-1.1,2.1-0.7,4.6,0.9,6.3
	c1.7,1.7,4.2,2,6.3,0.9l35.3-19.1l4,4c2.1,2.1,5.4,2.1,7.5,0l19.9-19.9l8.5,8.5c9.2,9.2,24.3,9.2,33.5,0l57-57
	c9.2-9.2,9.2-24.3,0-33.5l-55.9-55.9c-9.2-9.2-24.3-9.2-33.5,0l-57,57C222.1,174.9,222.1,189.9,231.3,199.2z"/>
<path class="st0" d="M238.3,338.1l-32.5-43.5l-32.5,43.5c-5,6.7-8,15.1-8,24.2c0,22.4,18.1,40.5,40.5,40.5s40.5-18.1,40.5-40.5
	C246.3,353.3,243.4,344.9,238.3,338.1z"/>
</svg>
